<?xml version="1.0" encoding="utf-8"?>
<!-- Generator: Adobe Illustrator 16.0.0, SVG Export Plug-In . SVG Version: 6.00 Build 0)  -->
<!DOCTYPE svg PUBLIC "-//W3C//DTD SVG 1.1//EN" "http://www.w3.org/Graphics/SVG/1.1/DTD/svg11.dtd">
<svg version="1.1" id="Layer_1" xmlns="http://www.w3.org/2000/svg" xmlns:xlink="http://www.w3.org/1999/xlink" x="0px" y="0px"
	 width="1423.221px" height="136.711px" viewBox="0 0 1423.221 136.711" enable-background="new 0 0 1423.221 136.711"
	 xml:space="preserve">
<g>
	<path fill="#5584B8" d="M1374.832,106.912c-1.118,0-2.147-0.623-2.664-1.62l-2.894-5.586l-6.057,1.916
		c-0.593,0.187-1.228,0.186-1.818-0.003l-21.705-6.934l-15.675,0.078c-0.005,0-0.01,0-0.015,0c-1.65,0-2.992-1.333-3-2.985
		c-0.008-1.656,1.328-3.007,2.985-3.015l16.149-0.08c0.32-0.005,0.627,0.047,0.928,0.143l21.25,6.788l7.555-2.391
		c1.393-0.439,2.897,0.186,3.569,1.48l3.183,6.145l16.6-0.569c1.616-0.036,3.044,1.239,3.101,2.896
		c0.057,1.655-1.239,3.044-2.896,3.101l-18.494,0.635C1374.9,106.911,1374.866,106.912,1374.832,106.912z"/>
</g>
<g>
	<path fill="#BBBDBF" d="M584.239,88.368c-0.097,0-0.196-0.005-0.295-0.015l-27.023-2.637c-0.375-0.036-0.739-0.143-1.074-0.314
		l-24.974-12.77l-16.771-0.801c-0.175-0.009-0.348-0.032-0.519-0.071l-60.468-13.679l-62.833-4.677l-49.822,6.812
		c-0.864,0.121-1.737-0.146-2.392-0.724l-17.372-15.331l-25.785,8.254l-9.935,11.497c-0.167,0.193-0.358,0.364-0.569,0.509
		l-20.993,14.453c-1.365,0.942-3.232,0.596-4.172-0.77c-0.939-1.364-0.595-3.232,0.77-4.172l20.676-14.235l10.234-11.844
		c0.361-0.417,0.83-0.727,1.355-0.896l28.211-9.031c1.008-0.32,2.108-0.091,2.9,0.608l17.619,15.55l48.774-6.67
		c0.208-0.029,0.419-0.033,0.629-0.02l63.371,4.717c0.148,0.012,0.295,0.033,0.439,0.066l60.429,13.67l17.156,0.82
		c0.426,0.02,0.843,0.131,1.223,0.325l25.042,12.805l26.457,2.582c1.649,0.16,2.855,1.628,2.694,3.276
		C587.07,87.209,585.765,88.368,584.239,88.368z"/>
</g>
<g>
	<g>
		<g>
			<g>
				<g>
					<path fill="#D4D4D4" d="M195.396,92.679"/>
				</g>
			</g>
		</g>
	</g>
</g>
<g>
	<g>
		<g>
			<g>
				<g>
					<path fill="#D4D4D4" d="M203.319,90.753"/>
				</g>
			</g>
		</g>
	</g>
</g>
<g>
	<g>
		<g>
			<g>
				<g>
					<path fill="#D4D4D4" d="M188.274,106.774"/>
				</g>
			</g>
		</g>
	</g>
</g>
<g>
	<path fill="#BBBDBF" d="M1244.021,97.139c-0.32,0-0.64-0.052-0.945-0.152l-13.542-4.495l-45.043-1.714
		c-0.577-0.022-1.136-0.21-1.608-0.542l-3.52-2.469c-0.121-0.085-0.234-0.178-0.342-0.279l-14.777-14.014l-18.138-5.856
		l-11.282-1.621l-12.593,4.32c-1.022,0.35-2.15,0.125-2.959-0.589l-2.952-2.605l-9.38,1.718c-0.441,0.079-0.896,0.061-1.328-0.057
		l-28.974-7.894c-1.599-0.436-2.542-2.085-2.106-3.684s2.089-2.544,3.683-2.105l28.316,7.714l10.142-1.857
		c0.904-0.162,1.836,0.093,2.525,0.702l2.736,2.415l11.627-3.988c0.451-0.153,0.932-0.199,1.4-0.132l12.25,1.76
		c0.168,0.024,0.334,0.062,0.495,0.115l19.029,6.145c0.427,0.138,0.817,0.369,1.143,0.678l15.111,14.33l2.613,1.834l44.585,1.696
		c0.282,0.011,0.562,0.062,0.831,0.15l13.346,4.43l22.16-2.131c0.089-0.009,0.179-0.013,0.269-0.014l57.996-0.365
		c0.006,0,0.013,0,0.019,0c1.648,0,2.989,1.331,3,2.981c0.011,1.656-1.324,3.008-2.981,3.019l-57.861,0.364l-22.657,2.179
		C1244.213,97.134,1244.117,97.139,1244.021,97.139z"/>
</g>
<g>
	<path fill="#BBBDBF" d="M762.936,97.48c-0.206,0-0.413-0.021-0.618-0.064l-24.936-5.254l-43.918-9.838l-23.625-0.688l-33.519,8.319
		c-0.173,0.043-0.35,0.07-0.528,0.082L611.77,91.6c-0.183,0.012-0.368,0.008-0.551-0.016l-27.339-3.266
		c-1.645-0.196-2.819-1.689-2.623-3.334c0.196-1.646,1.69-2.825,3.335-2.623l27.064,3.232l23.478-1.527l33.658-8.354
		c0.265-0.065,0.538-0.095,0.81-0.087l24.324,0.709c0.191,0.006,0.382,0.029,0.568,0.071l44.162,9.893l23.667,4.987l29.543-19.617
		c0.116-0.078,0.239-0.147,0.365-0.208l30.9-14.77c0.072-0.034,0.146-0.065,0.221-0.095l27.988-10.719l9.361-12.697
		c0.495-0.671,1.246-1.105,2.073-1.2l13.209-1.514l18.888-1.87l22.422-8.123l16.493-10.86l8.443-9.132
		c1.071-1.16,2.857-1.289,4.085-0.3l14.638,11.792l18.154,6.474c0.679,0.242,1.247,0.721,1.603,1.348l3.073,5.424l11.494-0.255
		c0.726-0.02,1.456,0.239,2.017,0.72l7.261,6.211l8.216-2.326c0.611-0.173,1.264-0.148,1.859,0.073l11.979,4.439l5.192-1.99
		c0.74-0.281,1.561-0.262,2.287,0.059l22.945,10.148c0.598,0.265,1.094,0.718,1.41,1.29l4.079,7.365l15.649,4.02
		c1.604,0.412,2.571,2.047,2.159,3.651c-0.411,1.605-2.049,2.574-3.651,2.159l-16.901-4.341c-0.799-0.205-1.479-0.73-1.878-1.452
		l-4.217-7.613l-20.892-9.24l-5.093,1.952c-0.678,0.26-1.432,0.264-2.115,0.012l-12.122-4.492l-8.819,2.497
		c-0.966,0.272-2.004,0.046-2.768-0.607l-7.611-6.511l-12.142,0.27c-1.081,0.036-2.133-0.559-2.677-1.521l-3.406-6.013l-17.581-6.27
		c-0.316-0.112-0.612-0.278-0.874-0.489L944.733,6.612l-6.788,7.342c-0.165,0.179-0.351,0.336-0.554,0.47L920.298,25.68
		c-0.196,0.129-0.406,0.234-0.628,0.314l-23.107,8.371c-0.234,0.085-0.478,0.141-0.726,0.165l-19.215,1.902l-11.865,1.36
		l-9.107,12.353c-0.341,0.462-0.807,0.816-1.342,1.021l-28.697,10.99L795.01,76.783l-30.415,20.196
		C764.1,97.309,763.521,97.48,762.936,97.48z"/>
</g>
<g>
	<path fill="#BBBDBF" d="M17.958,120.709c-1.053,0-2.075-0.556-2.624-1.541c-0.806-1.447-0.286-3.274,1.161-4.081l15.299-8.521
		c0.342-0.19,0.719-0.312,1.108-0.358l37.938-4.484c0.405-0.048,0.816-0.013,1.209,0.104l24.875,7.413l65.954-9.789l36.109-20.427
		c0.085-0.048,0.172-0.092,0.261-0.131l14.701-6.518c0.42-0.187,0.879-0.281,1.337-0.255l46.549,1.885
		c1.655,0.066,2.943,1.463,2.876,3.118s-1.466,2.971-3.119,2.876l-45.851-1.856l-13.928,6.175l-36.468,20.63
		c-0.321,0.182-0.672,0.302-1.037,0.356l-67.164,9.969c-0.433,0.064-0.877,0.032-1.297-0.093l-24.919-7.427l-36.733,4.342
		l-14.78,8.233C18.953,120.586,18.452,120.709,17.958,120.709z"/>
</g>
<g>
	<g>
		<g>
			<path fill="#BBBDBF" d="M56.42,103.167c1.225-4.107,5.473-6.459,9.492-5.26c4.018,1.197,6.286,5.49,5.062,9.598
				c-1.222,4.1-5.473,6.455-9.491,5.258C57.465,111.565,55.199,107.267,56.42,103.167z"/>
		</g>
		<g>
			<path fill="#5584B8" d="M63.698,105.335"/>
		</g>
	</g>
</g>
<g>
	<g>
		<g>
			
				<ellipse transform="matrix(-0.9583 -0.2856 0.2856 -0.9583 214.8394 246.6977)" fill="#BBBDBF" cx="125.41" cy="107.682" rx="7.594" ry="7.752"/>
		</g>
		<g>
			<path fill="#5584B8" d="M125.411,107.683"/>
		</g>
	</g>
</g>
<g>
	<g>
		<g>
			
				<ellipse transform="matrix(-0.9583 -0.2857 0.2857 -0.9583 369.2541 217.1345)" fill="#BBBDBF" cx="200.463" cy="81.637" rx="7.593" ry="7.75"/>
		</g>
		<g>
			<path fill="#5584B8" d="M200.463,81.636"/>
		</g>
	</g>
</g>
<g>
	<g>
		<g>
			
				<ellipse transform="matrix(-0.9583 -0.2856 0.2856 -0.9583 490.1964 226.3736)" fill="#BBBDBF" cx="261.605" cy="77.441" rx="7.594" ry="7.752"/>
		</g>
		<g>
			<path fill="#5584B8" d="M261.605,77.442"/>
		</g>
	</g>
</g>
<g>
	
		<ellipse transform="matrix(-0.9583 -0.2856 0.2856 -0.9583 560.9048 184.9098)" fill="#BBBDBF" cx="293.937" cy="51.551" rx="7.594" ry="7.75"/>
</g>
<g>
	<path fill="#5584B8" d="M293.938,51.552"/>
</g>
<g>
	
		<ellipse transform="matrix(-0.9583 -0.2856 0.2856 -0.9583 666.6254 210.5284)" fill="#BBBDBF" cx="348.666" cy="56.65" rx="7.594" ry="7.753"/>
</g>
<g>
	<path fill="#5584B8" d="M348.665,56.649"/>
</g>
<g>
	
		<ellipse transform="matrix(-0.9583 -0.2856 0.2856 -0.9583 790.9937 219.9019)" fill="#BBBDBF" cx="411.533" cy="52.268" rx="7.594" ry="7.752"/>
</g>
<g>
	<path fill="#5584B8" d="M411.534,52.269"/>
</g>
<g>
	
		<ellipse transform="matrix(-0.9583 -0.2857 0.2857 -0.9583 899.5879 249.3003)" fill="#BBBDBF" cx="467.977" cy="59.039" rx="7.593" ry="7.75"/>
</g>
<g>
	<path fill="#5584B8" d="M467.977,59.04"/>
</g>
<g>
	
		<ellipse transform="matrix(-0.9584 -0.2855 0.2855 -0.9584 983.2407 280.621)" fill="#BBBDBF" cx="512.077" cy="68.634" rx="7.593" ry="7.751"/>
</g>
<g>
	<path fill="#5584B8" d="M512.078,68.634"/>
</g>
<g>
	
		<ellipse transform="matrix(-0.9583 -0.2856 0.2856 -0.9583 1111.7294 332.8753)" fill="#BBBDBF" cx="580.139" cy="85.367" rx="7.594" ry="7.749"/>
</g>
<g>
	<path fill="#5584B8" d="M580.14,85.368"/>
</g>
<g>
	<g>
		
			<ellipse transform="matrix(-0.9583 -0.2857 0.2857 -0.9583 1229.8384 352.1689)" fill="#BBBDBF" cx="640.604" cy="86.387" rx="7.593" ry="7.751"/>
	</g>
	<g>
		<path fill="#BBBDBF" d="M640.604,86.386"/>
	</g>
</g>
<g>
	<g>
		
			<ellipse transform="matrix(-0.9583 -0.2857 0.2857 -0.9583 1343.032 355.6218)" fill="#BBBDBF" cx="697.453" cy="79.857" rx="7.593" ry="7.75"/>
	</g>
	<g>
		<path fill="#BBBDBF" d="M697.453,79.858"/>
	</g>
</g>
<g>
	<g>
		
			<ellipse transform="matrix(-0.9583 -0.2857 0.2857 -0.9583 1438.1244 391.7429)" fill="#BBBDBF" cx="747.634" cy="90.982" rx="7.593" ry="7.752"/>
	</g>
	<g>
		<path fill="#BBBDBF" d="M747.633,90.983"/>
	</g>
</g>
<g>
	<g>
		<path fill="#BBBDBF" d="M793.459,67.894c1.223-4.104,5.471-6.459,9.49-5.262s6.285,5.496,5.062,9.6
			c-1.223,4.102-5.473,6.457-9.49,5.258C794.5,76.292,792.236,71.995,793.459,67.894z"/>
	</g>
	<g>
		<path fill="#BBBDBF" d="M800.734,70.062"/>
	</g>
</g>
<g>
	<g>
		<path fill="#BBBDBF" d="M841.828,47.552c1.223-4.102,5.473-6.459,9.488-5.262c4.023,1.199,6.287,5.496,5.064,9.598
			c-1.223,4.104-5.469,6.459-9.492,5.262C842.873,55.952,840.605,51.653,841.828,47.552z"/>
	</g>
	<g>
		<path fill="#BBBDBF" d="M849.104,49.72"/>
	</g>
</g>
<g>
	<g>
		
			<ellipse transform="matrix(-0.9583 -0.2857 0.2857 -0.9583 1736.269 319.115)" fill="#BBBDBF" cx="891.413" cy="32.901" rx="7.595" ry="7.751"/>
	</g>
	<g>
		<path fill="#BBBDBF" d="M891.416,32.901"/>
	</g>
</g>
<g>
	<g>
		<path fill="#BBBDBF" d="M923.309,12.063c1.223-4.104,5.473-6.459,9.49-5.262c4.021,1.199,6.289,5.498,5.066,9.6
			c-1.225,4.104-5.473,6.459-9.496,5.26C924.352,20.464,922.084,16.167,923.309,12.063z"/>
	</g>
	<g>
		<path fill="#BBBDBF" d="M930.588,14.233"/>
	</g>
</g>
<g>
	<g>
		<path fill="#BBBDBF" d="M961.578,15.845c1.225-4.105,5.473-6.459,9.492-5.262c4.016,1.197,6.285,5.494,5.061,9.598
			c-1.223,4.104-5.473,6.457-9.488,5.26C962.623,24.243,960.355,19.946,961.578,15.845z"/>
	</g>
	<g>
		<path fill="#BBBDBF" d="M968.855,18.013"/>
	</g>
</g>
<g>
	<g>
		<path fill="#BBBDBF" d="M1009.475,32.892c1.223-4.104,5.475-6.457,9.49-5.26c4.023,1.199,6.287,5.494,5.064,9.598
			c-1.225,4.104-5.471,6.459-9.492,5.26C1010.52,41.292,1008.25,36.995,1009.475,32.892z"/>
	</g>
	<g>
		<path fill="#BBBDBF" d="M1016.752,35.062"/>
	</g>
</g>
<g>
	<g>
		
			<ellipse transform="matrix(-0.9584 -0.2856 0.2856 -0.9584 2087.1597 420.1279)" fill="#BBBDBF" cx="1074.214" cy="57.877" rx="7.595" ry="7.75"/>
	</g>
	<g>
		<path fill="#BBBDBF" d="M1074.215,57.878"/>
	</g>
</g>
<g>
	<g>
		
			<ellipse transform="matrix(-0.9583 -0.2857 0.2857 -0.9583 2180.6951 449.1274)" fill="#BBBDBF" cx="1123.104" cy="65.516" rx="7.593" ry="7.75"/>
	</g>
	<g>
		<path fill="#BBBDBF" d="M1123.105,65.517"/>
	</g>
</g>
<g>
	<g>
		<path fill="#BBBDBF" d="M1168.127,74.833c1.223-4.104,5.471-6.459,9.492-5.26c4.016,1.197,6.283,5.494,5.061,9.596
			c-1.223,4.104-5.473,6.459-9.488,5.262C1169.17,83.231,1166.904,78.935,1168.127,74.833z"/>
	</g>
	<g>
		<path fill="#BBBDBF" d="M1175.404,77.001"/>
	</g>
</g>
<g>
	<g>
		<path fill="#BBBDBF" d="M1222.797,86.8c1.223-4.102,5.473-6.457,9.492-5.26c4.016,1.197,6.283,5.496,5.061,9.598
			c-1.223,4.104-5.473,6.457-9.49,5.26S1221.574,90.903,1222.797,86.8z"/>
	</g>
	<g>
		<path fill="#BBBDBF" d="M1230.074,88.97"/>
	</g>
</g>
<g>
	<g>
		<path fill="#BBBDBF" d="M1272.188,89.733c1.223-4.104,5.469-6.457,9.488-5.26s6.287,5.494,5.064,9.596
			c-1.225,4.104-5.473,6.459-9.492,5.26C1273.229,98.132,1270.963,93.837,1272.188,89.733z"/>
	</g>
	<g>
		<path fill="#BBBDBF" d="M1279.463,91.901"/>
	</g>
</g>
<g>
	<g>
		<path fill="#5584B8" d="M1317.531,87.995c1.223-4.104,5.473-6.457,9.492-5.26s6.285,5.494,5.061,9.598
			c-1.221,4.102-5.469,6.457-9.49,5.26C1318.576,96.396,1316.309,92.097,1317.531,87.995z"/>
	</g>
	<g>
		<path fill="#BBBDBF" d="M1324.809,90.165"/>
	</g>
</g>
<g>
	<g>
		
			<ellipse transform="matrix(-0.9584 -0.2856 0.2856 -0.9584 2635.147 583.9598)" fill="#5584B8" cx="1360.153" cy="99.836" rx="7.595" ry="7.749"/>
	</g>
	<g>
		<path fill="#BBBDBF" d="M1360.152,99.835"/>
	</g>
</g>
<g>
	<path fill="#1A1A1A" d="M1398.004,111.916V98.855h6.154v2.465h-3.236v2.703h2.469v2.465h-2.469v2.963h3.387v2.465H1398.004z"/>
	<path fill="#1A1A1A" d="M1409.746,111.916v-5.965c0-0.926-0.268-1.334-0.801-1.334c-0.283,0-0.617,0.111-0.918,0.408v6.891h-2.734
		v-9.521h2.4l0.184,1.111c0.867-0.852,1.418-1.26,2.502-1.26c1.367,0,2.102,1.037,2.102,2.76v6.91H1409.746z"/>
	<path fill="#1A1A1A" d="M1418.535,111.916l-0.184-1.148c-0.533,0.703-1.234,1.297-2.152,1.297c-1.467,0-2.668-1.057-2.668-4.816
		c0-3.742,1.252-5.002,2.719-5.002c0.783,0,1.4,0.426,1.951,1.111v-4.779h2.736v13.338H1418.535z M1418.201,105.043
		c-0.301-0.277-0.617-0.426-0.85-0.426c-0.668,0-1.002,0.574-1.002,2.537c0,1.982,0.334,2.539,1.002,2.539
		c0.232,0,0.549-0.148,0.85-0.428V105.043z"/>
</g>
<g>
	<path fill="#1A1A1A" d="M4.679,134.531c-1.651,0-2.735-0.48-3.853-1.482l1.368-2.223c0.884,0.926,1.685,1.354,2.468,1.354
		c0.667,0,1.117-0.408,1.117-1.094c0-0.74-0.367-1.203-1.534-1.777c-2.218-1.094-3.152-2.279-3.152-4.354
		c0-2.224,1.484-3.779,3.686-3.779c1.484,0,2.385,0.389,3.319,1.26l-1.368,2.223c-0.8-0.852-1.417-1.131-2.068-1.131
		c-0.601,0-1,0.391-1,0.965c0,0.686,0.3,1.129,1.601,1.76c2.218,1.074,3.135,2.26,3.135,4.352
		C8.398,133.16,6.713,134.531,4.679,134.531z"/>
	<path fill="#1A1A1A" d="M12.418,134.514c-1.885,0-2.585-0.928-2.585-2.797v-4.91H8.999v-1.945h0.8l1.051-2.852h1.701v2.852h1.434
		v1.945h-1.434v4.631c0,0.686,0.4,0.908,0.867,0.908c0.184,0,0.317-0.02,0.567-0.074v2.057
		C13.619,134.439,13.068,134.514,12.418,134.514z"/>
	<path fill="#1A1A1A" d="M19.356,134.383l-0.167-1.018c-0.701,0.723-1.351,1.148-2.302,1.148c-1.184,0-2.135-0.779-2.135-2.65
		c0-2.092,1.718-3.074,4.27-3.371v-0.24c0-0.945-0.25-1.297-1.034-1.297c-0.601,0-1.334,0.297-2.035,0.74l-0.817-1.98
		c1.017-0.631,2.084-1.002,3.585-1.002c2.135,0,3.036,0.705,3.036,2.945v6.725H19.356z M19.022,129.975
		c-1.084,0.166-1.684,0.592-1.684,1.5c0,0.797,0.383,1.094,0.817,1.094c0.317,0,0.567-0.094,0.867-0.26V129.975z"/>
	<path fill="#1A1A1A" d="M25.728,128.363v6.02h-2.735v-9.521h2.401l0.267,1.648c0.717-1.297,1.368-1.797,2.185-1.797v3.168
		C26.912,127.881,26.294,128.012,25.728,128.363z"/>
	<path fill="#1A1A1A" d="M31.665,134.514c-1.885,0-2.585-0.928-2.585-2.797v-4.91h-0.834v-1.945h0.8l1.051-2.852h1.701v2.852h1.434
		v1.945h-1.434v4.631c0,0.686,0.4,0.908,0.867,0.908c0.184,0,0.317-0.02,0.567-0.074v2.057
		C32.866,134.439,32.315,134.514,31.665,134.514z"/>
</g>
<g>
	<path fill="#FFFFFF" d="M61.654,110.84v-1.646h1.336v-6.29h-1.336v-1.219l2.368-1.309h1.138v8.817h1.283v1.646H61.654z"/>
</g>
<g>
	<path fill="#FFFFFF" d="M122.982,113.359v-1.763l1.376-1.94c1.561-2.189,1.786-2.895,1.786-3.762c0-0.689-0.357-1.043-0.794-1.043
		c-0.423,0-0.82,0.235-1.376,0.794l-1.019-1.616c0.833-0.794,1.667-1.176,2.699-1.176c1.747,0,2.765,1.043,2.765,2.851
		c0,1.528-0.582,2.601-2.064,4.35l-1.045,1.234h3.215v2.071H122.982z"/>
</g>
<g>
	<path fill="#FFFFFF" d="M200.506,86.558c-1.072,0-2.024-0.338-2.831-1.073l0.86-1.836c0.622,0.631,1.151,0.926,1.667,0.926
		c0.608,0,0.992-0.456,0.992-1.279c0-0.793-0.397-1.248-1.363-1.248h-0.437v-1.926h0.529c0.78,0,1.164-0.352,1.164-1.176
		c0-0.631-0.344-1.057-0.913-1.057c-0.463,0-1.032,0.309-1.601,0.852l-0.688-1.837c0.781-0.632,1.614-0.999,2.699-0.999
		c1.588,0,2.712,0.984,2.712,2.631c0,1.307-0.542,2.071-1.336,2.424c0.953,0.309,1.548,1.072,1.548,2.527
		C203.509,85.338,202.187,86.558,200.506,86.558z"/>
</g>
<g>
	<path fill="#FFFFFF" d="M263.192,80.029v2.278h-2.077v-2.263h-3.188v-1.44l2.857-6.656h2.408v6.568h1.032v1.513H263.192z
		 M261.115,74.152l-1.826,4.364h1.826V74.152z"/>
</g>
<g>
	<path fill="#FFFFFF" d="M294.062,56.379c-0.965,0-1.905-0.309-2.725-1.073l0.86-1.837c0.622,0.603,1.125,0.926,1.667,0.926
		c0.608,0,1.019-0.529,1.019-1.527c0-1.088-0.344-1.455-0.953-1.455c-0.383,0-0.767,0.25-1.045,0.559l-1.164-0.765l0.344-5.334h4.71
		l-0.119,2.042h-3.069l-0.132,1.939c0.317-0.176,0.688-0.293,1.204-0.293c1.574,0,2.54,1.131,2.54,3.174
		C297.198,55.129,295.809,56.379,294.062,56.379z"/>
</g>
<g>
	<path fill="#FFFFFF" d="M348.293,62.275c-2.09,0-3.056-1.734-3.056-4.776c0-3.806,0.979-5.878,3.281-5.878
		c0.965,0,1.614,0.235,2.328,0.809l-0.754,1.777c-0.477-0.439-0.913-0.719-1.429-0.719c-0.82,0-1.085,0.588-1.138,2.718
		c0.396-0.294,0.847-0.485,1.375-0.485c1.363,0,2.209,0.926,2.209,3.086C351.111,61.025,349.986,62.275,348.293,62.275z
		 M348.174,57.264c-0.251,0-0.489,0.089-0.662,0.177c0,2.616,0.318,3.101,0.807,3.101c0.331,0,0.582-0.309,0.582-1.602
		C348.901,57.588,348.637,57.264,348.174,57.264z"/>
</g>
<g>
	<path fill="#FFFFFF" d="M412.568,58.076h-2.329c0.251-2.264,1.005-5.57,2.527-8.303h-3.347v-2.057h5.318v1.675
		C413.322,52.066,412.7,54.564,412.568,58.076z"/>
</g>
<g>
	<path fill="#FFFFFF" d="M468.339,64.866c-1.693,0-2.977-0.926-2.977-2.733c0-1.087,0.384-1.896,1.363-2.659
		c-0.714-0.559-1.098-1.265-1.098-2.454c0-1.631,1.177-2.807,2.751-2.807c1.72,0,2.805,1.029,2.805,2.602
		c0,0.939-0.41,1.703-1.138,2.365c0.926,0.676,1.402,1.484,1.402,2.66C471.448,63.661,470.218,64.866,468.339,64.866z
		 M467.85,60.149c-0.384,0.573-0.423,1.161-0.423,1.763c0,0.867,0.489,1.396,1.032,1.396c0.529,0,0.926-0.455,0.926-1.234
		S468.988,60.781,467.85,60.149z M468.339,55.712c-0.45,0-0.807,0.396-0.807,1.014s0.172,1.116,1.323,1.749
		c0.304-0.456,0.423-0.955,0.423-1.529C469.279,56.138,468.869,55.712,468.339,55.712z"/>
</g>
<g>
	<path fill="#FFFFFF" d="M512.03,74.527c-0.979,0-1.654-0.236-2.395-0.809l0.754-1.778c0.463,0.44,0.965,0.72,1.548,0.72
		c0.78,0,1.071-0.484,1.151-2.57c-0.397,0.293-0.847,0.484-1.376,0.484c-1.363,0-2.209-0.911-2.209-3.159
		c0-2.308,1.125-3.542,2.818-3.542c2.09,0,3.056,1.734,3.056,4.775C515.377,72.572,514.332,74.527,512.03,74.527z M513.102,68.737
		c0-2.646-0.317-3.13-0.807-3.13c-0.331,0-0.582,0.323-0.582,1.676c0,1.41,0.265,1.748,0.728,1.748c0.251,0,0.49-0.088,0.662-0.176
		V68.737z"/>
</g>
<g>
	<path fill="#FFFFFF" d="M575.123,89.917v-1.312h1.065v-5.008h-1.065v-0.973l1.888-1.041h0.907v7.021h1.022v1.312H575.123z"/>
	<path fill="#FFFFFF" d="M582.143,90.034c-1.582,0-2.362-1.429-2.362-4.237c0-2.832,0.78-4.248,2.362-4.248s2.351,1.428,2.351,4.236
		C584.494,88.617,583.724,90.034,582.143,90.034z M582.132,83.012c-0.4,0-0.538,0.551-0.538,2.773c0,2.225,0.137,2.786,0.559,2.786
		c0.401,0,0.527-0.55,0.527-2.774C582.68,83.574,582.554,83.012,582.132,83.012z"/>
</g>
<g>
	<path fill="#FFFFFF" d="M635.729,91.091v-1.312h1.065v-5.008h-1.065v-0.973l1.888-1.041h0.907v7.021h1.022v1.312H635.729z"/>
	<path fill="#FFFFFF" d="M640.999,91.091v-1.312h1.065v-5.008h-1.065v-0.973l1.888-1.041h0.907v7.021h1.022v1.312H640.999z"/>
</g>
<g>
	<path fill="#FFFFFF" d="M692.578,84.021v-1.312h1.065v-5.008h-1.065v-0.973l1.888-1.041h0.907v7.021h1.022v1.312H692.578z"/>
	<path fill="#FFFFFF" d="M697.342,84.021v-1.404l1.097-1.545c1.244-1.743,1.423-2.306,1.423-2.996c0-0.55-0.285-0.831-0.633-0.831
		c-0.337,0-0.654,0.188-1.097,0.632l-0.812-1.287c0.664-0.632,1.328-0.937,2.151-0.937c1.392,0,2.204,0.831,2.204,2.271
		c0,1.218-0.464,2.071-1.645,3.464l-0.833,0.983h2.562v1.65H697.342z"/>
</g>
<g>
	<path fill="#FFFFFF" d="M742.76,95.64v-1.312h1.064V89.32h-1.064v-0.973l1.887-1.041h0.907v7.021h1.022v1.312H742.76z"/>
	<path fill="#FFFFFF" d="M749.494,95.757c-0.854,0-1.613-0.27-2.256-0.854l0.686-1.463c0.495,0.504,0.917,0.737,1.328,0.737
		c0.484,0,0.791-0.362,0.791-1.019c0-0.632-0.316-0.994-1.086-0.994h-0.348v-1.533h0.422c0.621,0,0.928-0.281,0.928-0.937
		c0-0.503-0.275-0.843-0.729-0.843c-0.369,0-0.822,0.246-1.275,0.679l-0.549-1.463c0.623-0.503,1.287-0.796,2.151-0.796
		c1.266,0,2.161,0.784,2.161,2.096c0,1.041-0.432,1.649-1.064,1.931c0.76,0.245,1.234,0.854,1.234,2.013
		C751.889,94.785,750.834,95.757,749.494,95.757z"/>
</g>
<g>
	<path fill="#FFFFFF" d="M795.861,73.648v-1.311h1.064v-5.009h-1.064v-0.972l1.887-1.041h0.907v7.021h1.022v1.311H795.861z"/>
	<path fill="#FFFFFF" d="M804.621,71.835v1.813h-1.656v-1.802h-2.541v-1.147l2.277-5.301h1.92v5.23h0.822v1.206H804.621z
		 M802.965,67.153l-1.455,3.476h1.455V67.153z"/>
</g>
<g>
	<path fill="#FFFFFF" d="M844.229,53.451v-1.311h1.064v-5.01h-1.064V46.16l1.887-1.042h0.907v7.022h1.022v1.311H844.229z"/>
	<path fill="#FFFFFF" d="M851.026,53.568c-0.77,0-1.519-0.246-2.172-0.854l0.686-1.463c0.495,0.479,0.896,0.737,1.328,0.737
		c0.485,0,0.812-0.422,0.812-1.217c0-0.867-0.273-1.159-0.759-1.159c-0.306,0-0.611,0.199-0.833,0.444l-0.928-0.607l0.274-4.249
		h3.753l-0.094,1.627h-2.447l-0.105,1.545c0.254-0.141,0.549-0.234,0.96-0.234c1.255,0,2.024,0.901,2.024,2.528
		C853.525,52.573,852.418,53.568,851.026,53.568z"/>
</g>
<g>
	<path fill="#FFFFFF" d="M886.541,37.592v-1.311h1.064v-5.01h-1.064v-0.971l1.887-1.042h0.907v7.022h1.022v1.311H886.541z"/>
	<path fill="#FFFFFF" d="M893.74,37.709c-1.666,0-2.436-1.381-2.436-3.804c0-3.031,0.779-4.682,2.614-4.682
		c0.77,0,1.286,0.188,1.856,0.644l-0.602,1.416c-0.38-0.351-0.728-0.573-1.139-0.573c-0.654,0-0.865,0.468-0.906,2.165
		c0.315-0.234,0.674-0.386,1.096-0.386c1.086,0,1.761,0.737,1.761,2.458C895.985,36.714,895.09,37.709,893.74,37.709z
		 M893.645,33.718c-0.2,0-0.39,0.07-0.527,0.141c0,2.083,0.254,2.47,0.644,2.47c0.264,0,0.464-0.246,0.464-1.275
		C894.225,33.976,894.014,33.718,893.645,33.718z"/>
</g>
<g>
	<path fill="#FFFFFF" d="M925.711,18.698v-1.312h1.065v-5.008h-1.065v-0.973l1.889-1.041h0.906v7.021h1.022v1.312H925.711z"/>
	<path fill="#FFFFFF" d="M933.121,18.698h-1.855c0.201-1.802,0.801-4.436,2.014-6.612h-2.668v-1.639h4.239v1.334
		C933.723,13.912,933.227,15.9,933.121,18.698z"/>
</g>
<g>
	<path fill="#FFFFFF" d="M963.98,22.659v-1.312h1.065V16.34h-1.065v-0.973l1.889-1.041h0.906v7.021h1.022v1.312H963.98z"/>
	<path fill="#FFFFFF" d="M970.969,22.776c-1.35,0-2.372-0.737-2.372-2.177c0-0.866,0.306-1.51,1.087-2.119
		c-0.57-0.444-0.876-1.006-0.876-1.954c0-1.299,0.938-2.235,2.193-2.235c1.37,0,2.235,0.819,2.235,2.072
		c0,0.748-0.327,1.357-0.906,1.884c0.737,0.538,1.117,1.183,1.117,2.118C973.447,21.816,972.467,22.776,970.969,22.776z
		 M970.579,19.02c-0.306,0.457-0.337,0.924-0.337,1.404c0,0.69,0.39,1.111,0.822,1.111c0.422,0,0.738-0.362,0.738-0.982
		C971.803,19.932,971.486,19.522,970.579,19.02z M970.969,15.484c-0.357,0-0.643,0.316-0.643,0.809c0,0.491,0.137,0.889,1.055,1.393
		c0.242-0.363,0.337-0.762,0.337-1.217C971.718,15.824,971.391,15.484,970.969,15.484z"/>
</g>
<g>
	<path fill="#FFFFFF" d="M1011.877,39.462V38.15h1.064v-5.008h-1.064V32.17l1.887-1.041h0.907v7.021h1.022v1.312H1011.877z"/>
	<path fill="#FFFFFF" d="M1018.538,39.579c-0.78,0-1.318-0.188-1.909-0.644l0.602-1.416c0.369,0.351,0.77,0.573,1.234,0.573
		c0.621,0,0.854-0.386,0.916-2.048c-0.316,0.234-0.674,0.386-1.096,0.386c-1.086,0-1.762-0.726-1.762-2.517
		c0-1.837,0.896-2.82,2.246-2.82c1.666,0,2.436,1.381,2.436,3.804C1021.205,38.022,1020.373,39.579,1018.538,39.579z
		 M1019.393,34.968c0-2.106-0.254-2.493-0.644-2.493c-0.264,0-0.464,0.258-0.464,1.334c0,1.124,0.211,1.393,0.58,1.393
		c0.199,0,0.39-0.069,0.527-0.14V34.968z"/>
</g>
<g>
	<path fill="#FFFFFF" d="M1068.834,62.252v-1.404l1.098-1.545c1.244-1.743,1.423-2.305,1.423-2.996c0-0.55-0.284-0.83-0.633-0.83
		c-0.337,0-0.653,0.188-1.097,0.631l-0.812-1.287c0.664-0.631,1.328-0.936,2.151-0.936c1.391,0,2.203,0.83,2.203,2.27
		c0,1.218-0.464,2.072-1.645,3.465l-0.834,0.982h2.562v1.65H1068.834z"/>
	<path fill="#FFFFFF" d="M1076.36,62.369c-1.581,0-2.362-1.428-2.362-4.236c0-2.832,0.781-4.248,2.362-4.248
		s2.351,1.428,2.351,4.236C1078.711,60.953,1077.941,62.369,1076.36,62.369z M1076.35,55.348c-0.4,0-0.537,0.55-0.537,2.773
		s0.137,2.785,0.559,2.785c0.4,0,0.527-0.55,0.527-2.773S1076.771,55.348,1076.35,55.348z"/>
</g>
<g>
	<path fill="#FFFFFF" d="M1117.725,69.748v-1.404l1.098-1.545c1.244-1.744,1.423-2.307,1.423-2.996c0-0.551-0.284-0.832-0.633-0.832
		c-0.337,0-0.653,0.188-1.097,0.633l-0.812-1.287c0.664-0.633,1.328-0.938,2.151-0.938c1.391,0,2.203,0.832,2.203,2.271
		c0,1.217-0.464,2.071-1.645,3.464l-0.834,0.983h2.562v1.65H1117.725z"/>
	<path fill="#FFFFFF" d="M1123.5,69.748v-1.312h1.065v-5.009h-1.065v-0.972l1.889-1.042h0.906v7.022h1.022v1.312H1123.5z"/>
</g>
<g>
	<path fill="#FFFFFF" d="M1171.023,80.541v-1.404l1.098-1.545c1.244-1.744,1.423-2.307,1.423-2.996c0-0.551-0.284-0.832-0.633-0.832
		c-0.337,0-0.653,0.188-1.097,0.633l-0.812-1.287c0.664-0.633,1.328-0.938,2.151-0.938c1.391,0,2.203,0.832,2.203,2.271
		c0,1.217-0.464,2.071-1.645,3.464l-0.834,0.983h2.562v1.65H1171.023z"/>
	<path fill="#FFFFFF" d="M1176.293,80.541v-1.404l1.098-1.545c1.244-1.744,1.423-2.307,1.423-2.996c0-0.551-0.284-0.832-0.633-0.832
		c-0.337,0-0.653,0.188-1.097,0.633l-0.812-1.287c0.664-0.633,1.328-0.938,2.151-0.938c1.391,0,2.203,0.832,2.203,2.271
		c0,1.217-0.464,2.071-1.645,3.464l-0.834,0.983h2.562v1.65H1176.293z"/>
</g>
<g>
	<path fill="#FFFFFF" d="M1225.551,92.695v-1.404l1.096-1.545c1.244-1.744,1.424-2.306,1.424-2.996c0-0.551-0.285-0.831-0.633-0.831
		c-0.338,0-0.654,0.188-1.097,0.632l-0.812-1.287c0.664-0.632,1.328-0.937,2.15-0.937c1.393,0,2.204,0.831,2.204,2.271
		c0,1.217-0.464,2.072-1.646,3.465l-0.832,0.982h2.562v1.65H1225.551z"/>
	<path fill="#FFFFFF" d="M1232.791,92.812c-0.854,0-1.613-0.27-2.256-0.854l0.686-1.463c0.495,0.503,0.917,0.737,1.328,0.737
		c0.484,0,0.791-0.363,0.791-1.018c0-0.633-0.316-0.996-1.086-0.996h-0.348v-1.533h0.422c0.621,0,0.928-0.28,0.928-0.936
		c0-0.504-0.275-0.843-0.729-0.843c-0.369,0-0.822,0.245-1.275,0.679l-0.549-1.463c0.623-0.503,1.287-0.796,2.151-0.796
		c1.266,0,2.161,0.784,2.161,2.095c0,1.042-0.432,1.65-1.064,1.932c0.76,0.246,1.234,0.854,1.234,2.013
		C1235.186,91.841,1234.131,92.812,1232.791,92.812z"/>
</g>
<g>
	<path fill="#FFFFFF" d="M1274.939,95.41v-1.404l1.098-1.545c1.244-1.744,1.423-2.306,1.423-2.996c0-0.551-0.284-0.831-0.633-0.831
		c-0.337,0-0.653,0.188-1.097,0.632l-0.812-1.287c0.664-0.632,1.328-0.937,2.151-0.937c1.391,0,2.203,0.831,2.203,2.271
		c0,1.217-0.464,2.072-1.645,3.465l-0.834,0.982h2.562v1.65H1274.939z"/>
	<path fill="#FFFFFF" d="M1284.205,93.596v1.814h-1.654v-1.803h-2.541v-1.146l2.277-5.302h1.918v5.231h0.822v1.205H1284.205z
		 M1282.551,88.914l-1.455,3.477h1.455V88.914z"/>
</g>
<g>
	<path fill="#FFFFFF" d="M1320.428,94.432v-1.404l1.096-1.545c1.244-1.744,1.424-2.306,1.424-2.996c0-0.551-0.285-0.831-0.633-0.831
		c-0.338,0-0.654,0.188-1.097,0.632L1320.406,87c0.664-0.632,1.328-0.937,2.15-0.937c1.393,0,2.204,0.831,2.204,2.271
		c0,1.217-0.464,2.072-1.646,3.465l-0.832,0.982h2.562v1.65H1320.428z"/>
	<path fill="#FFFFFF" d="M1327.731,94.549c-0.77,0-1.519-0.246-2.172-0.854l0.686-1.463c0.495,0.479,0.896,0.737,1.328,0.737
		c0.485,0,0.812-0.422,0.812-1.217c0-0.867-0.273-1.159-0.759-1.159c-0.306,0-0.611,0.199-0.833,0.444l-0.928-0.607l0.274-4.249
		h3.753l-0.094,1.627h-2.447l-0.105,1.545c0.254-0.141,0.549-0.234,0.96-0.234c1.255,0,2.024,0.901,2.024,2.528
		C1330.23,93.554,1329.123,94.549,1327.731,94.549z"/>
</g>
<g>
	<path fill="#FFFFFF" d="M1354.771,103.801v-1.404l1.096-1.545c1.244-1.744,1.424-2.306,1.424-2.996
		c0-0.551-0.285-0.831-0.633-0.831c-0.338,0-0.654,0.188-1.097,0.632l-0.812-1.287c0.664-0.632,1.328-0.937,2.15-0.937
		c1.393,0,2.204,0.831,2.204,2.271c0,1.217-0.464,2.072-1.646,3.465l-0.832,0.982h2.562v1.65H1354.771z"/>
	<path fill="#FFFFFF" d="M1362.477,103.918c-1.666,0-2.436-1.381-2.436-3.804c0-3.031,0.779-4.682,2.614-4.682
		c0.77,0,1.286,0.188,1.856,0.644l-0.602,1.416c-0.38-0.351-0.728-0.573-1.139-0.573c-0.654,0-0.865,0.468-0.906,2.165
		c0.315-0.234,0.674-0.386,1.096-0.386c1.086,0,1.761,0.737,1.761,2.458C1364.722,102.923,1363.826,103.918,1362.477,103.918z
		 M1362.381,99.927c-0.2,0-0.39,0.07-0.527,0.141c0,2.083,0.254,2.47,0.644,2.47c0.264,0,0.464-0.246,0.464-1.275
		C1362.961,100.185,1362.75,99.927,1362.381,99.927z"/>
</g>
<g>
	<g>
		<path d="M1146.366,54.094l-5.252-11.75l0.12,11.802l-0.937,0.009l-0.138-13.502l1.188-0.012l4.938,11.053l-0.113-11.102
			l0.937-0.01l0.138,13.502L1146.366,54.094z"/>
		<path d="M1149.482,54.062l-0.138-13.503l5.437-0.055l0.011,1.02l-4.429,0.045l0.05,4.941l3.619-0.037l0.011,1.02l-3.619,0.037
			l0.056,5.502l4.645-0.047l0.011,1.02L1149.482,54.062z"/>
		<path d="M1165.04,53.943l-0.828,0.008l-2.351-11.519l-2.151,11.565l-0.828,0.008l-2.893-13.515l1.062-0.011l2.24,11.301
			l2.117-11.345l1.044-0.011l2.204,11.301l2.01-11.344l0.99-0.01L1165.04,53.943z"/>
		<path d="M1172.478,41.344l0.127,12.482l-1.009,0.01l-0.127-12.482l-3.042,0.031l-0.011-1.02l7.129-0.072l0.011,1.02
			L1172.478,41.344z"/>
		<path d="M1180.656,53.945c-2.575,0.025-3.991-2.861-4.032-6.902c-0.041-4.04,1.352-6.976,3.927-7.002
			c2.574-0.025,3.991,2.881,4.032,6.922C1184.624,51.003,1183.23,53.918,1180.656,53.945z M1180.525,41.043
			c-1.927,0.02-2.91,2.609-2.875,5.99c0.034,3.381,1.105,5.93,3.032,5.91c1.926-0.02,2.908-2.59,2.874-5.971
			C1183.521,43.593,1182.451,41.022,1180.525,41.043z"/>
		<path d="M1192.593,53.623l-5.251-11.75l0.12,11.803l-0.937,0.009l-0.138-13.503l1.188-0.012l4.938,11.053l-0.113-11.102
			l0.937-0.01l0.138,13.502L1192.593,53.623z"/>
	</g>
</g>
<g>
	<path d="M774.946,117.498h-0.839l-2.261-11.543l-2.297,11.543h-0.839l-2.79-13.543h1.075l2.152,11.322l2.261-11.322h1.058
		l2.115,11.322l2.151-11.322h1.003L774.946,117.498z"/>
	<path d="M779.374,117.457v-13.502h5.507v1.02h-4.486v4.941h3.665v1.02h-3.665v5.502h4.705v1.02H779.374z"/>
	<path d="M786.721,117.457v-13.502h1.021v12.482h4.304v1.02H786.721z"/>
	<path d="M793.557,117.457v-13.502h1.021v12.482h4.304v1.02H793.557z"/>
	<path d="M800.393,117.457v-13.502h5.507v1.02h-4.486v4.941h3.665v1.02h-3.665v5.502h4.705v1.02H800.393z"/>
	<path d="M810.528,117.658c-1.513,0-2.589-0.82-3.354-1.781l0.675-0.881c0.766,0.941,1.513,1.662,2.717,1.662
		c1.294,0,2.078-0.98,2.078-2.461c0-1.4-0.602-2.16-2.261-3.102c-1.878-1.061-2.862-1.84-2.862-4c0-1.701,1.039-3.342,2.953-3.342
		c1.331,0,2.17,0.641,2.918,1.541l-0.675,0.881c-0.729-0.881-1.331-1.421-2.334-1.421c-1.203,0-1.823,1.04-1.823,2.2
		c0,1.541,0.747,2.182,2.298,3.061c1.75,0.98,2.826,1.861,2.826,4.061C813.684,116.277,812.315,117.658,810.528,117.658z"/>
	<path d="M815.541,117.457v-13.502h1.021v12.482h4.304v1.02H815.541z"/>
	<path d="M822.377,117.457v-13.502h5.507v1.02h-4.486v4.941h3.665v1.02h-3.665v5.502h4.705v1.02H822.377z"/>
	<path d="M833.206,111.617v5.84h-1.021v-5.84l-3.337-7.662h1.095l2.808,6.621l2.754-6.621h1.039L833.206,111.617z"/>
</g>
<g>
	<path d="M610.448,117.029l-5.131-11.803v11.803h-0.937v-13.504h1.188l4.825,11.104v-11.104h0.937v13.504H610.448z"/>
	<path d="M619.614,117.029l-0.99-4.121h-3.745l-0.99,4.121h-1.008l3.403-13.543h1.008l3.403,13.543H619.614z M616.751,105.166
		l-1.621,6.723h3.241L616.751,105.166z"/>
	<path d="M625.432,104.547v12.482h-1.008v-12.482h-3.043v-1.021h7.13v1.021H625.432z"/>
	<path d="M630.025,117.029v-13.504h1.008v13.504H630.025z"/>
	<path d="M636.94,117.229c-2.485,0-3.889-2.9-3.889-6.941s1.512-6.961,3.871-6.961c1.71,0,2.809,1.221,3.277,3.82l-0.918,0.381
		c-0.432-2.182-1.17-3.201-2.395-3.201c-1.747,0-2.809,2.58-2.809,5.961s1.08,5.941,2.898,5.941c1.135,0,2.035-1.08,2.485-3.021
		l0.864,0.381C639.749,115.949,638.506,117.229,636.94,117.229z"/>
	<path d="M647.529,117.029l-3.259-6.902l-1.207,1.861v5.041h-1.008v-13.504h1.008v6.902l4.321-6.902h1.152l-3.583,5.541l3.763,7.963
		H647.529z"/>
</g>
<g>
	<path d="M168.219,66.146l-0.99-4.121h-3.745l-0.99,4.121h-1.008l3.403-13.543h1.008l3.403,13.543H168.219z M165.356,54.285
		l-1.621,6.721h3.241L165.356,54.285z"/>
	<path d="M173.605,66.348c-1.494,0-2.557-0.82-3.313-1.781l0.667-0.88c0.756,0.94,1.494,1.66,2.683,1.66
		c1.278,0,2.053-0.979,2.053-2.46c0-1.4-0.594-2.161-2.233-3.102c-1.854-1.06-2.827-1.84-2.827-4c0-1.701,1.026-3.342,2.917-3.342
		c1.314,0,2.143,0.641,2.881,1.541l-0.667,0.881c-0.72-0.881-1.314-1.421-2.305-1.421c-1.188,0-1.8,1.04-1.8,2.2
		c0,1.541,0.738,2.181,2.269,3.061c1.729,0.98,2.791,1.861,2.791,4.061C176.72,64.967,175.37,66.348,173.605,66.348z"/>
	<path d="M184.5,66.146v-6.521h-4.934v6.521h-1.008V52.645h1.008v5.961h4.934v-5.961h1.008v13.502H184.5z"/>
	<path d="M187.779,66.146V52.645h1.008v12.482h4.25v1.02H187.779z"/>
	<path d="M200.582,66.146l-0.99-4.121h-3.745l-0.99,4.121h-1.008l3.403-13.543h1.008l3.403,13.543H200.582z M197.719,54.285
		l-1.621,6.721h3.241L197.719,54.285z"/>
	<path d="M209.281,66.146l-5.131-11.803v11.803h-0.937V52.645h1.188l4.826,11.102V52.645h0.936v13.502H209.281z"/>
	<path d="M214.63,66.146h-2.233V52.645h2.251c3.313,0,4.879,2.561,4.879,6.701C219.528,63.526,217.925,66.146,214.63,66.146z
		 M214.684,53.664h-1.278v11.463h1.314c2.557,0,3.781-2.141,3.781-5.781C218.501,55.744,217.241,53.664,214.684,53.664z"/>
</g>
<g>
	<path d="M14.816,81.844v-6.521H9.882v6.521H8.874V68.342h1.008v5.961h4.934v-5.961h1.008v13.502H14.816z"/>
	<path d="M21.696,82.045c-2.575,0-3.961-2.901-3.961-6.941c0-4.041,1.422-6.963,3.997-6.963s3.961,2.922,3.961,6.963
		C25.693,79.144,24.271,82.045,21.696,82.045z M21.696,69.142c-1.926,0-2.935,2.581-2.935,5.962c0,3.38,1.044,5.94,2.971,5.94
		s2.935-2.561,2.935-5.94C24.667,71.723,23.623,69.142,21.696,69.142z"/>
	<path d="M29.854,76.043h-1.278v5.801h-1.008V68.342h2.503c2.358,0,3.529,1.52,3.529,3.76
		C33.599,74.502,32.177,76.043,29.854,76.043z M29.998,69.361h-1.422v5.662h1.44c1.44,0,2.539-0.921,2.539-2.901
		C32.555,70.182,31.493,69.361,29.998,69.361z"/>
	<path d="M40.605,81.844l-3.259-6.9l-1.207,1.859v5.041h-1.008V68.342h1.008v6.9l4.321-6.9h1.152l-3.583,5.541l3.763,7.961H40.605z"
		/>
	<path d="M43.199,81.844V68.342h1.008v13.502H43.199z"/>
	<path d="M52.653,81.844l-5.131-11.803v11.803h-0.937V68.342h1.188l4.825,11.102V68.342h0.937v13.502H52.653z"/>
	<path d="M58.957,69.361v12.482h-1.008V69.361h-3.043v-1.02h7.13v1.02H58.957z"/>
	<path d="M67.006,82.045c-2.575,0-3.961-2.901-3.961-6.941c0-4.041,1.422-6.963,3.997-6.963s3.961,2.922,3.961,6.963
		C71.004,79.144,69.581,82.045,67.006,82.045z M67.006,69.142c-1.926,0-2.935,2.581-2.935,5.962c0,3.38,1.044,5.94,2.971,5.94
		s2.935-2.561,2.935-5.94C69.978,71.723,68.933,69.142,67.006,69.142z"/>
	<path d="M78.946,81.844l-5.131-11.803v11.803h-0.937V68.342h1.188l4.825,11.102V68.342h0.937v13.502H78.946z"/>
</g>
<g>
	<path d="M1369.765,81.844h-2.61V68.342h2.61c2.017,0,3.421,1.08,3.421,3.32c0,1.84-0.918,2.701-1.926,3.121
		c1.386,0.32,2.376,1.3,2.376,3.32C1373.636,80.624,1372.142,81.844,1369.765,81.844z M1369.603,69.302h-1.458v5.041h1.477
		c1.71,0,2.557-0.841,2.557-2.641C1372.178,70.041,1371.277,69.302,1369.603,69.302z M1369.765,75.283h-1.62v5.602h1.692
		c1.872,0,2.79-0.82,2.79-2.762C1372.627,76.203,1371.674,75.283,1369.765,75.283z"/>
	<path d="M1378.895,82.045c-2.574,0-3.961-2.901-3.961-6.941c0-4.041,1.423-6.963,3.998-6.963c2.574,0,3.961,2.922,3.961,6.963
		C1382.893,79.144,1381.47,82.045,1378.895,82.045z M1378.895,69.142c-1.926,0-2.934,2.581-2.934,5.962
		c0,3.38,1.043,5.94,2.971,5.94c1.926,0,2.935-2.561,2.935-5.94C1381.866,71.723,1380.822,69.142,1378.895,69.142z"/>
	<path d="M1387.521,82.045c-1.494,0-2.557-0.82-3.312-1.781l0.666-0.88c0.756,0.94,1.494,1.66,2.683,1.66
		c1.278,0,2.053-0.979,2.053-2.46c0-1.4-0.595-2.161-2.233-3.102c-1.854-1.06-2.826-1.84-2.826-4c0-1.701,1.026-3.342,2.916-3.342
		c1.314,0,2.144,0.641,2.881,1.541l-0.666,0.881c-0.72-0.881-1.314-1.421-2.305-1.421c-1.188,0-1.8,1.04-1.8,2.2
		c0,1.541,0.737,2.181,2.269,3.061c1.729,0.98,2.791,1.861,2.791,4.061C1390.637,80.664,1389.286,82.045,1387.521,82.045z"/>
	<path d="M1395.662,69.361v12.482h-1.009V69.361h-3.043v-1.02h7.13v1.02H1395.662z"/>
	<path d="M1403.712,82.045c-2.575,0-3.961-2.901-3.961-6.941c0-4.041,1.423-6.963,3.997-6.963s3.961,2.922,3.961,6.963
		C1407.709,79.144,1406.287,82.045,1403.712,82.045z M1403.712,69.142c-1.927,0-2.935,2.581-2.935,5.962
		c0,3.38,1.044,5.94,2.971,5.94s2.936-2.561,2.936-5.94C1406.684,71.723,1405.639,69.142,1403.712,69.142z"/>
	<path d="M1415.651,81.844l-5.132-11.803v11.803h-0.936V68.342h1.188l4.826,11.102V68.342h0.936v13.502H1415.651z"/>
</g>
<g>
	<path d="M1258.589,121.645h-2.611v-13.504h2.611c2.017,0,3.421,1.08,3.421,3.321c0,1.841-0.919,2.7-1.927,3.12
		c1.387,0.32,2.377,1.301,2.377,3.321C1262.46,120.424,1260.965,121.645,1258.589,121.645z M1258.427,109.102h-1.459v5.041h1.477
		c1.711,0,2.557-0.84,2.557-2.641C1261.001,109.842,1260.101,109.102,1258.427,109.102z M1258.589,115.082h-1.621v5.602h1.692
		c1.873,0,2.791-0.82,2.791-2.76C1261.451,116.003,1260.497,115.082,1258.589,115.082z"/>
	<path d="M1269.25,121.645l-2.305-6.062h-1.818v6.062h-1.009v-13.504h2.341c2.467,0,3.691,1.441,3.691,3.641
		c0,1.842-0.973,3.041-2.215,3.541l2.431,6.322H1269.25z M1266.405,109.161h-1.278v5.462h1.296c1.513,0,2.683-0.841,2.683-2.801
		C1269.105,109.922,1267.972,109.161,1266.405,109.161z"/>
	<path d="M1275.59,121.844c-2.575,0-3.962-2.9-3.962-6.941s1.423-6.961,3.997-6.961c2.575,0,3.962,2.92,3.962,6.961
		S1278.164,121.844,1275.59,121.844z M1275.59,108.941c-1.927,0-2.936,2.58-2.936,5.961s1.045,5.941,2.971,5.941
		c1.927,0,2.936-2.561,2.936-5.941S1277.516,108.941,1275.59,108.941z"/>
	<path d="M1285.062,121.844c-2.575,0-3.962-2.9-3.962-6.941s1.423-6.961,3.997-6.961c2.575,0,3.962,2.92,3.962,6.961
		S1287.637,121.844,1285.062,121.844z M1285.062,108.941c-1.927,0-2.936,2.58-2.936,5.961s1.045,5.941,2.971,5.941
		c1.927,0,2.936-2.561,2.936-5.941S1286.988,108.941,1285.062,108.941z"/>
	<path d="M1296.407,121.645l-3.259-6.902l-1.206,1.861v5.041h-1.009v-13.504h1.009v6.902l4.321-6.902h1.152l-3.583,5.541
		l3.763,7.963H1296.407z"/>
	<path d="M1298.857,121.645v-13.504h1.009v12.483h4.249v1.021H1298.857z"/>
	<path d="M1305.756,121.645v-13.504h1.008v13.504H1305.756z"/>
	<path d="M1315.21,121.645l-5.132-11.803v11.803h-0.937v-13.504h1.188l4.825,11.104v-11.104h0.937v13.504H1315.21z"/>
	<path d="M1318.326,121.645v-13.504h5.438v1.021h-4.429v4.941h3.619v1.021h-3.619v5.501h4.646v1.021H1318.326z"/>
</g>
</svg>
